<?xml version="1.0" encoding="UTF-8" standalone="no"?>
<!-- Generator: Adobe Illustrator 14.0.0, SVG Export Plug-In . SVG Version: 6.00 Build 43363)  -->

<svg
   xmlns:dc="http://purl.org/dc/elements/1.1/"
   xmlns:cc="http://creativecommons.org/ns#"
   xmlns:rdf="http://www.w3.org/1999/02/22-rdf-syntax-ns#"
   xmlns:svg="http://www.w3.org/2000/svg"
   xmlns="http://www.w3.org/2000/svg"
   xmlns:xlink="http://www.w3.org/1999/xlink"
   xmlns:sodipodi="http://sodipodi.sourceforge.net/DTD/sodipodi-0.dtd"
   xmlns:inkscape="http://www.inkscape.org/namespaces/inkscape"
   version="1.1"
   id="Layer_1"
   x="0px"
   y="0px"
   width="611.306px"
   height="568.512px"
   viewBox="91.801 15.624 611.306 568.512"
   enable-background="new 91.801 15.624 611.306 568.512"
   xml:space="preserve"
   sodipodi:version="0.32"
   inkscape:version="0.47 r22583"
   sodipodi:docname="logo.svg"
   inkscape:output_extension="org.inkscape.output.svg.inkscape"><metadata
   id="metadata32"><rdf:RDF><cc:Work
       rdf:about=""><dc:format>image/svg+xml</dc:format><dc:type
         rdf:resource="http://purl.org/dc/dcmitype/StillImage" /><dc:title></dc:title></cc:Work></rdf:RDF></metadata><defs
   id="defs30"><inkscape:perspective
     sodipodi:type="inkscape:persp3d"
     inkscape:vp_x="0 : 284.25601 : 1"
     inkscape:vp_y="0 : 1000 : 0"
     inkscape:vp_z="611.30603 : 284.25601 : 1"
     inkscape:persp3d-origin="305.65302 : 189.50401 : 1"
     id="perspective34" /><filter
     id="filter3649"
     inkscape:collect="always"><feGaussianBlur
       id="feGaussianBlur3651"
       stdDeviation="1.2532691"
       inkscape:collect="always" /></filter><linearGradient
     gradientUnits="userSpaceOnUse"
     y2="83.243243"
     x2="58.810811"
     y1="84.454048"
     x1="51.372974"
     id="linearGradient3272"
     xlink:href="#linearGradient2338"
     inkscape:collect="always" /><linearGradient
     gradientUnits="userSpaceOnUse"
     y2="80.994591"
     x2="50.248646"
     y1="81.945953"
     x1="45.05946"
     id="linearGradient3270"
     xlink:href="#linearGradient2338"
     inkscape:collect="always" /><linearGradient
     gradientUnits="userSpaceOnUse"
     y2="85.36216"
     x2="54.227028"
     y1="86.227027"
     x1="46.875676"
     id="linearGradient3268"
     xlink:href="#linearGradient2338"
     inkscape:collect="always" /><linearGradient
     gradientUnits="userSpaceOnUse"
     y2="79.913513"
     x2="87.005409"
     y1="86.313515"
     x1="80.951347"
     id="linearGradient3266"
     xlink:href="#linearGradient2338"
     inkscape:collect="always" /><linearGradient
     gradientUnits="userSpaceOnUse"
     y2="76.281082"
     x2="91.848656"
     y1="81.556763"
     x1="89.081085"
     id="linearGradient3264"
     xlink:href="#linearGradient2338"
     inkscape:collect="always" /><linearGradient
     gradientUnits="userSpaceOnUse"
     y2="82.335136"
     x2="90.63784"
     y1="87.005409"
     x1="85.794594"
     id="linearGradient3262"
     xlink:href="#linearGradient2338"
     inkscape:collect="always" /><linearGradient
     gradientUnits="userSpaceOnUse"
     y2="89.340546"
     x2="77.23243"
     y1="92.108109"
     x1="75.675682"
     id="linearGradient3260"
     xlink:href="#linearGradient2338"
     inkscape:collect="always" /><linearGradient
     gradientUnits="userSpaceOnUse"
     y2="86.745941"
     x2="73.945946"
     y1="91.848648"
     x1="72.172974"
     id="linearGradient3258"
     xlink:href="#linearGradient2338"
     inkscape:collect="always" /><linearGradient
     gradientUnits="userSpaceOnUse"
     y2="90.810814"
     x2="70.572968"
     y1="93.75135"
     x1="69.405403"
     id="linearGradient3256"
     xlink:href="#linearGradient2338"
     inkscape:collect="always" /><linearGradient
     gradientUnits="userSpaceOnUse"
     y2="117.01532"
     x2="61.49189"
     y1="118.37755"
     x1="57.078114"
     id="linearGradient3254"
     xlink:href="#linearGradient2338"
     inkscape:collect="always" /><linearGradient
     gradientUnits="userSpaceOnUse"
     y2="113.72972"
     x2="62.010811"
     y1="115.2"
     x1="59.589188"
     id="linearGradient3252"
     xlink:href="#linearGradient2338"
     inkscape:collect="always" /><linearGradient
     gradientUnits="userSpaceOnUse"
     y2="108.36758"
     x2="93.924324"
     y1="112.25947"
     x1="89.945946"
     id="linearGradient3250"
     xlink:href="#linearGradient2338"
     inkscape:collect="always" /><linearGradient
     gradientUnits="userSpaceOnUse"
     y2="107.32973"
     x2="90.983788"
     y1="110.0108"
     x1="89.167564"
     id="linearGradient3248"
     xlink:href="#linearGradient2338"
     inkscape:collect="always" /><linearGradient
     gradientUnits="userSpaceOnUse"
     y2="120.25946"
     x2="66.835136"
     y1="108.84325"
     x1="75.243248"
     id="linearGradient3218"
     xlink:href="#linearGradient2320"
     inkscape:collect="always" /><linearGradient
     gradientUnits="userSpaceOnUse"
     y2="26.60471"
     x2="42.319382"
     y1="29.173227"
     x1="36.815422"
     id="linearGradient2442"
     xlink:href="#linearGradient2338"
     inkscape:collect="always" /><linearGradient
     gradientUnits="userSpaceOnUse"
     y2="23.485796"
     x2="41.585522"
     y1="19.204933"
     x1="38.405453"
     id="linearGradient2440"
     xlink:href="#linearGradient2338"
     inkscape:collect="always" /><linearGradient
     gradientUnits="userSpaceOnUse"
     y2="10.948983"
     x2="50.147251"
     y1="17.431433"
     x1="38.527763"
     id="linearGradient2438"
     xlink:href="#linearGradient2338"
     inkscape:collect="always" /><linearGradient
     gradientUnits="userSpaceOnUse"
     y2="14.862915"
     x2="58.097424"
     y1="19.266088"
     x1="54.550419"
     id="linearGradient2436"
     xlink:href="#linearGradient2338"
     inkscape:collect="always" /><linearGradient
     gradientUnits="userSpaceOnUse"
     y2="14.312518"
     x2="61.155182"
     y1="9.420104"
     x1="58.586662"
     id="linearGradient2434"
     xlink:href="#linearGradient2338"
     inkscape:collect="always" /><linearGradient
     gradientUnits="userSpaceOnUse"
     y2="7.9523797"
     x2="72.407738"
     y1="12.233242"
     x1="62.011353"
     id="linearGradient2432"
     xlink:href="#linearGradient2338"
     inkscape:collect="always" /><linearGradient
     gradientUnits="userSpaceOnUse"
     y2="16.636415"
     x2="81.703322"
     y1="16.636415"
     x1="75.710114"
     id="linearGradient2430"
     xlink:href="#linearGradient2338"
     inkscape:collect="always" /><linearGradient
     gradientUnits="userSpaceOnUse"
     y2="16.269484"
     x2="92.344322"
     y1="20.794968"
     x1="86.595734"
     id="linearGradient2428"
     xlink:href="#linearGradient2338"
     inkscape:collect="always" /><linearGradient
     gradientUnits="userSpaceOnUse"
     y2="29.784779"
     x2="93.689735"
     y1="25.136986"
     x1="88.185776"
     id="linearGradient2426"
     xlink:href="#linearGradient2338"
     inkscape:collect="always" /><linearGradient
     gradientUnits="userSpaceOnUse"
     y2="31.252504"
     x2="92.099701"
     y1="35.166435"
     x1="86.228806"
     id="linearGradient2424"
     xlink:href="#linearGradient2338"
     inkscape:collect="always" /><linearGradient
     gradientUnits="userSpaceOnUse"
     y2="28.622829"
     x2="83.537971"
     y1="37.001091"
     x1="68.738426"
     id="linearGradient2422"
     xlink:href="#linearGradient2338"
     inkscape:collect="always" /><linearGradient
     gradientUnits="userSpaceOnUse"
     y2="40.91502"
     x2="68.249184"
     y1="35.533367"
     x1="65.802979"
     id="linearGradient2420"
     xlink:href="#linearGradient2338"
     inkscape:collect="always" /><linearGradient
     gradientUnits="userSpaceOnUse"
     y2="41.587729"
     x2="67.51532"
     y1="41.587729"
     x1="51.003421"
     id="linearGradient2418"
     xlink:href="#linearGradient2338"
     inkscape:collect="always" /><linearGradient
     gradientUnits="userSpaceOnUse"
     y2="37.368023"
     x2="56.385075"
     y1="36.634155"
     x1="52.104214"
     id="linearGradient2416"
     xlink:href="#linearGradient2338"
     inkscape:collect="always" /><linearGradient
     gradientUnits="userSpaceOnUse"
     y2="31.374813"
     x2="50.63649"
     y1="33.698711"
     x1="44.154037"
     id="linearGradient2414"
     xlink:href="#linearGradient2338"
     inkscape:collect="always" /><linearGradient
     gradientUnits="userSpaceOnUse"
     y2="24.58659"
     x2="86.35112"
     y1="14.92407"
     x1="48.679523"
     id="linearGradient2412"
     xlink:href="#linearGradient2338"
     inkscape:collect="always" /><linearGradient
     gradientUnits="userSpaceOnUse"
     y2="20.489191"
     x2="88.230682"
     y1="33.126816"
     x1="61.444714"
     id="linearGradient2410"
     xlink:href="#linearGradient2338"
     inkscape:collect="always" /><linearGradient
     gradientUnits="userSpaceOnUse"
     y2="54.396393"
     x2="101.84822"
     y1="46.029598"
     x1="70.883636"
     id="linearGradient2374"
     xlink:href="#linearGradient2338"
     inkscape:collect="always" /><linearGradient
     gradientUnits="userSpaceOnUse"
     y2="105.06681"
     x2="87.941147"
     y1="58.344254"
     x1="45.499454"
     id="linearGradient2369"
     xlink:href="#linearGradient2338"
     inkscape:collect="always" /><linearGradient
     id="linearGradient2338"><stop
       style="stop-color: rgb(177, 177, 177); stop-opacity: 1;"
       offset="0"
       id="stop2340" /><stop
       style="stop-color: rgb(228, 228, 228); stop-opacity: 1;"
       offset="1"
       id="stop2342" /></linearGradient><linearGradient
     id="linearGradient2320"><stop
       style="stop-color: rgb(106, 60, 29); stop-opacity: 1;"
       offset="0"
       id="stop2322" /><stop
       style="stop-color: rgb(143, 81, 39); stop-opacity: 1;"
       offset="1"
       id="stop2324" /></linearGradient><inkscape:perspective
     id="perspective2908"
     inkscape:persp3d-origin="64 : 42.666667 : 1"
     inkscape:vp_z="128 : 64 : 1"
     inkscape:vp_y="0 : 1000 : 0"
     inkscape:vp_x="0 : 64 : 1"
     sodipodi:type="inkscape:persp3d" /></defs><sodipodi:namedview
   inkscape:window-height="700"
   inkscape:window-width="1191"
   inkscape:pageshadow="2"
   inkscape:pageopacity="0.0"
   guidetolerance="10.0"
   gridtolerance="10.0"
   objecttolerance="10.0"
   borderopacity="1.0"
   bordercolor="#666666"
   pagecolor="#ffffff"
   id="base"
   showgrid="false"
   inkscape:zoom="0.57462871"
   inkscape:cx="34.870615"
   inkscape:cy="242.09172"
   inkscape:window-x="-8"
   inkscape:window-y="0"
   inkscape:current-layer="g3"
   inkscape:window-maximized="0" />
<g
   id="g3">
	
	
<g
   id="g3000"
   transform="matrix(0.96428883,-0.22836874,-0.0613996,1.0422018,-101.98995,121.34935)"
   inkscape:export-filename="E:\My Dropbox\Uni\2010WS\Android Praktikum\Pics\g2952.png"
   inkscape:export-xdpi="49.27"
   inkscape:export-ydpi="49.27"><rect
     transform="matrix(1,0,0.82018064,0.57210464,0,0)"
     y="610.7179"
     x="-202.53883"
     height="307.03665"
     width="269.11288"
     id="rect3177"
     style="fill:#ffffff;fill-opacity:1;stroke:#000000;stroke-width:74.95259094;stroke-miterlimit:4;stroke-opacity:1;stroke-dasharray:none" /><g
     style="fill:#000000;fill-opacity:1"
     transform="matrix(0.37172248,0,0.34784363,0.24263308,329.35818,380.41405)"
     id="g21">
		<path
   style="fill:#000000;fill-opacity:1"
   id="path23"
   d="m 552.777,147.57 c -14.147,0 -25.622,11.652 -25.622,26.02 l 0,101.68 c 0,14.372 11.475,26.019 25.622,26.019 14.147,0 25.61,-11.646 25.61,-26.019 l 0,-101.68 c 0.001,-14.368 -11.462,-26.02 -25.61,-26.02 z m -309.011,0 c -14.155,0 -25.618,11.652 -25.618,26.02 l 0,101.68 c 0,14.372 11.462,26.019 25.618,26.019 14.153,0 25.623,-11.646 25.623,-26.019 l 0,-101.68 c -0.008,-14.368 -11.475,-26.02 -25.623,-26.02 z" />
		<path
   style="fill:#000000;fill-opacity:1"
   id="path25"
   d="m 284.799,148.364 0,185.768 c 0,11.035 8.948,19.98 19.983,19.98 l 22.815,0 0,56.567 c 0,14.37 11.47,26.016 25.623,26.016 14.148,0 25.623,-11.646 25.623,-26.016 l 0,-56.567 39.878,0 0,56.567 c 0,14.37 11.463,26.016 25.61,26.016 14.147,0 25.622,-11.646 25.622,-26.016 l 0,-56.567 22.828,0 c 11.022,0 19.971,-8.953 19.971,-19.98 l 0,-185.768 -227.953,0 0,0 z" />
		<path
   style="fill:#000000;fill-opacity:1"
   id="path27"
   d="m 452.302,52.105 21.057,-30.572 c 1.245,-1.819 0.939,-4.199 -0.695,-5.329 -1.637,-1.123 -3.968,-0.568 -5.225,1.251 l -21.875,31.75 c -14.404,-5.682 -30.418,-8.844 -47.293,-8.844 -16.87,0 -32.893,3.162 -47.297,8.844 l -21.875,-31.75 c -1.257,-1.819 -3.589,-2.375 -5.225,-1.251 -1.636,1.124 -1.946,3.509 -0.696,5.329 l 21.057,30.572 c -33.464,15.57 -56.951,45.166 -59.941,79.706 l 227.956,0 C 509.259,97.271 485.772,67.676 452.302,52.105 z M 350.187,100.28 c -6.965,0 -12.617,-5.646 -12.617,-12.616 0,-6.958 5.647,-12.61 12.617,-12.61 6.97,0 12.603,5.652 12.603,12.61 0,6.965 -5.64,12.616 -12.603,12.616 z m 97.744,0 c -6.97,0 -12.609,-5.646 -12.609,-12.616 0,-6.958 5.64,-12.61 12.609,-12.61 6.971,0 12.61,5.652 12.61,12.61 0,6.965 -5.64,12.616 -12.61,12.616 z" />
	</g></g><g
   id="g2952"
   transform="matrix(3.7987372,0,0,3.7987372,157.48705,49.935417)"
   inkscape:export-xdpi="49.27"
   inkscape:export-ydpi="49.27"><g
     inkscape:label="colors"
     id="layer2"><path
       inkscape:transform-center-y="8.1805851"
       inkscape:transform-center-x="-35.870846"
       sodipodi:nodetypes="cccccccccccccccccccccccccccccccc"
       id="path3528"
       d="m 43.690874,54.488869 c -5.310108,-1.261925 -12.49561,1.725867 -5.632449,4.226235 5.759206,2.169959 -2.020873,4.055293 -5.179203,1.822643 -2.210258,-2.199373 -5.271101,-5.397417 -10.38563,-4.178641 -3.347911,0.661399 -6.760845,2.829926 -5.650736,4.28039 4.845509,0.591047 0.594185,6.044727 2.02338,9.256014 1.476831,2.735225 1.207311,6.083709 6.331301,8.17602 5.447636,1.767447 5.203691,4.822426 5.936653,7.388252 2.209729,7.702958 3.50892,15.964388 5.750282,23.657008 1.829885,2.6676 9.357553,6.08773 13.657419,7.41801 5.798228,1.42602 11.840817,-0.005 17.665596,0.0186 5.30252,-0.66872 9.558366,-3.7922 14.942741,-4.38164 11.822302,-1.51698 12.632376,-4.09193 6.380009,-14.460127 -4.792942,-7.593665 -6.579773,-10.684312 -11.649799,-18.261084 3.735251,-1.812894 3.403924,-5.298176 0.626283,-8.162394 -6.060857,-6.04121 -3.683776,-6.549629 -4.901007,-9.099817 -2.15078,-2.440091 -7.315199,-5.49539 -12.235299,-4.731595 -3.281976,0.498915 2.870184,2.493361 -1.422795,1.069539 -1.854644,0.119003 1.748254,2.879923 -1.947366,1.205806 -4.34087,-2.188676 -9.908975,-2.61974 -14.865925,-2.726793 3.000267,0.73236 11.302912,0.975587 6.837398,-1.645585 -1.983619,-0.706376 -4.240003,-0.873081 -6.280853,-0.870821 z m -7.012375,3.902408 c -5.999429,-1.675671 -4.005122,4.689433 0.64523,2.624476 4.150756,0.317062 2.392192,-2.040575 -0.64523,-2.624476 z m -11.16549,1.220577 -0.21131,0.09018 0.21131,-0.09018 z m -3.416293,1.908227 c 0.245942,0.03234 -0.211565,0.08028 0,0 z m -2.482331,4.933881 c 0.763048,0.173572 -0.05463,0.515149 0,0 z"
       style="fill:#000000;fill-opacity:0.56164401;fill-rule:evenodd;stroke:none;filter:url(#filter3649)" /><path
       id="path2367"
       d="m 41.830144,52.901438 -3.913932,53.816562 0.856173,1.71234 5.870897,5.13704 10.02945,4.7701 11.497174,2.07928 0.366931,-7.58324 0.733862,-11.00794 3.18007,-5.381653 3.180069,-2.323897 4.647794,1.223103 4.036242,2.935449 1.467724,2.201588 1.712345,8.68403 1.712345,6.23783 9.173277,-7.33862 -2.323896,-25.195934 -3.424691,-30.57759 -4.770104,2.690828 -7.216311,2.690828 -8.928657,0.978483 -8.317104,-0.244621 -10.518691,-1.712345 -9.050967,-3.791621 z"
       style="fill:url(#linearGradient2369);fill-rule:evenodd;stroke:none" /><path
       id="path2372"
       d="m 35.836936,30.763262 0.12231,16.022658 3.669311,4.647793 5.626277,3.42469 10.27407,3.057759 10.518692,1.100794 12.108725,-1.100794 10.518692,-4.158552 6.604759,-6.482449 -0.244621,-15.900347 -1.100793,2.935449 -3.669311,3.791621 -3.057759,2.323897 -0.733862,-6.971691 -11.374864,3.180069 -6.97169,0.489242 L 67.51532,44.584333 60.66594,44.339712 54.550422,43.48354 50.7588,42.138126 50.63649,35.900297 45.377144,34.432573 41.096282,32.353297 38.160833,28.806296 37.30466,32.720228 35.836936,30.763262 z"
       style="fill:url(#linearGradient2374);fill-rule:evenodd;stroke:none" /><path
       id="path2376"
       d="m 37.30466,23.913882 5.748587,1.712345 0,1.834655 -4.770104,1.100794 -0.978483,4.403173 -1.100793,-2.813139 0.489242,-4.403173 0.611551,-1.834655 z"
       style="fill:url(#linearGradient2442);fill-rule:evenodd;stroke:none" /><path
       id="path2378"
       d="m 37.549281,23.546951 -0.611552,-6.48245 5.993208,2.323897 0.366931,6.360139 -5.748587,-2.201586 z"
       style="fill:url(#linearGradient2440);fill-rule:evenodd;stroke:none" /><path
       id="path2380"
       d="m 37.06004,16.69757 2.568517,-2.446207 3.42469,-2.201586 3.18007,-1.712345 2.935449,-1.3454144 4.036242,4.7701044 -4.403173,1.467724 -3.424691,2.201587 -2.323897,2.323896 -5.993207,-3.057759 z"
       style="fill:url(#linearGradient2438);fill-rule:evenodd;stroke:none" /><path
       id="path2382"
       d="m 53.694249,15.107536 2.446207,-0.489242 2.690828,-0.733862 3.669311,3.791621 -2.690828,0.489242 -1.590035,0.733862 -2.079276,0.366931 -2.079276,0 -0.366931,-4.158552 z"
       style="fill:url(#linearGradient2436);fill-rule:evenodd;stroke:none" /><path
       id="path2384"
       d="m 58.953595,14.006742 -0.366932,-6.8493798 3.547001,4.7701038 0.366931,5.626277 -3.547,-3.547001 z"
       style="fill:url(#linearGradient2434);fill-rule:evenodd;stroke:none" /><path
       id="path2386"
       d="m 59.565146,7.2796725 4.036242,-0.2446207 4.158553,-0.1223104 5.503966,0.7338622 2.690828,5.2593454 -6.482449,-1.345414 -3.791622,0 -3.66931,0.366931 -3.18007,-4.4031728 0.733862,-0.2446207 z"
       style="fill:url(#linearGradient2432);fill-rule:evenodd;stroke:none" /><path
       id="path2388"
       d="m 75.710114,13.27288 0.122311,4.158553 1.467724,0.24462 4.403173,2.323897 -0.12231,-2.813138 -1.834656,-1.100793 -2.079276,-1.223104 -1.712345,0.12231 -0.244621,-1.712345 z"
       style="fill:url(#linearGradient2430);fill-rule:evenodd;stroke:none" /><path
       id="path2390"
       d="m 81.458701,13.395191 4.647794,-1.834656 4.036242,2.690828 2.201586,2.323897 1.590035,3.30238 0.733862,3.913931 -7.583242,0.856173 0.366931,-2.201587 -0.489241,-3.180069 -2.201587,-2.935449 -3.30238,-2.935448 z"
       style="fill:url(#linearGradient2428);fill-rule:evenodd;stroke:none" /><path
       id="path2392"
       d="m 87.084978,24.647744 -0.366931,5.259346 7.950173,1.100793 -0.12231,-7.094001 -7.460932,0.733862 z"
       style="fill:url(#linearGradient2426);fill-rule:evenodd;stroke:none" /><path
       sodipodi:nodetypes="ccccccccc"
       id="path2394"
       d="m 86.962668,29.90709 -1.345414,2.201586 0.978482,1.467724 0.489242,6.849381 1.834655,-1.467725 3.913932,-2.813138 1.834655,-2.935449 0.210699,-2.323897 -7.916251,-0.978482 z"
       style="fill:url(#linearGradient2424);fill-rule:evenodd;stroke:none" /><path
       id="path2396"
       d="m 83.415667,27.093951 c 0.489241,1.100793 3.180069,6.237829 3.180069,6.237829 l -4.525483,1.467724 -9.295588,2.079276 -4.892414,0.122311 -1.467724,-5.381656 4.036242,0 5.014724,-1.345414 3.547001,-0.978483 3.791621,-1.590035 0.611552,-0.611552 z"
       style="fill:url(#linearGradient2422);fill-rule:evenodd;stroke:none" /><path
       id="path2398"
       d="m 68.249182,36.634159 -0.856172,7.827864 -1.590035,-5.014725 0.611552,-7.705553 1.834655,4.892414 z"
       style="fill:url(#linearGradient2420);fill-rule:evenodd;stroke:none" /><path
       id="path2400"
       d="m 65.680664,39.936539 -3.66931,-0.24462 -4.158553,-0.856173 -0.611551,-0.244621 -6.237829,3.547001 0.856173,0.856172 3.302379,0.611552 6.849381,0.856173 5.503966,0.12231 -1.834656,-4.647794 z"
       style="fill:url(#linearGradient2418);fill-rule:evenodd;stroke:none" /><path
       id="path2402"
       d="m 56.629698,32.353297 0.489241,6.482449 -6.115518,3.547 -0.12231,-4.036241 0,-2.446208 5.748587,-3.547 z"
       style="fill:url(#linearGradient2416);fill-rule:evenodd;stroke:none" /><path
       id="path2404"
       d="m 56.385077,32.720228 -4.770104,-1.467724 -3.913932,-1.712346 -3.669311,-2.813138 -5.870897,1.712345 0.978483,1.956966 2.446207,2.079276 4.525484,2.201587 4.892414,1.345414 5.381656,-3.30238 z"
       style="fill:url(#linearGradient2414);fill-rule:evenodd;stroke:none" /><path
       id="path2406"
       d="m 47.089489,28.439365 3.30238,-2.935449 5.993208,-2.813138 5.626277,-1.712345 4.525483,-0.611552 5.503966,0.489242 4.403173,0.733862 6.237829,3.057759 4.280863,4.525483 -0.856173,2.568518 1.100793,-3.791621 0,-3.791621 0.489242,-2.446208 -1.956966,-4.403173 -4.280863,-3.913931 0.122311,3.42469 0.24462,2.935448 -4.036242,-2.079276 -1.956965,-0.24462 0.12231,-4.525484 -5.993208,-1.100793 -3.42469,-0.244621 -4.525483,0.244621 0.611551,6.237828 -3.66931,0.856173 -4.158553,0.611552 -0.856172,-0.122311 -0.489242,-5.626276 -4.525483,1.345414 -4.158552,2.813138 -2.323897,2.446207 0.856172,6.115518 1.223104,0.611552 2.568517,1.345414 z"
       style="fill:url(#linearGradient2412);fill-rule:evenodd;stroke:none" /><path
       sodipodi:nodetypes="ccccccccccccccccccccc"
       id="path2408"
       d="m 47.089489,28.683986 2.323897,-2.323897 6.84938,-3.80646 8.675344,-2.064437 6.368831,0.12231 8.194794,2.446207 3.424691,1.834656 4.158552,4.036242 -0.733862,3.057759 -2.690828,-4.892415 -4.036242,2.079276 -5.137035,1.590035 -4.036242,0.856173 -4.158553,0 -0.489241,8.317104 -3.791621,-0.12231 -4.770104,-1.223104 -0.733863,-5.870897 -3.42469,-1.100793 -4.770104,-1.834656 -1.223104,-1.100793 z"
       style="fill:url(#linearGradient2410);fill-rule:evenodd;stroke:none" /><path
       style="fill:#000000;fill-opacity:0.15686298;fill-rule:evenodd;stroke:none"
       d="m 37.549281,23.546951 -0.611552,-6.48245 5.993208,2.323897 0.366931,6.360139 -5.748587,-2.201586 z"
       id="path2444" /><path
       style="fill:#000000;fill-opacity:0.15686298;fill-rule:evenodd;stroke:none"
       d="m 58.953595,14.006742 -0.366932,-6.8493798 3.547001,4.7701038 0.366931,5.626277 -3.547,-3.547001 z"
       id="path2446" /><path
       style="fill:#000000;fill-opacity:0.15686298;fill-rule:evenodd;stroke:none"
       d="m 87.084978,24.647744 -0.366931,5.259346 7.950173,1.100793 -0.12231,-7.094001 -7.460932,0.733862 z"
       id="path2448" /><path
       style="fill:#000000;fill-opacity:0.15686298;fill-rule:evenodd;stroke:none"
       d="m 68.249182,36.634159 -0.856172,7.827864 -1.590035,-5.014725 0.611552,-7.705553 1.834655,4.892414 z"
       id="path2450" /><path
       sodipodi:nodetypes="cccccccccccccccccccccccccccccccccc"
       style="fill:#000000;fill-opacity:0.15686298;fill-rule:evenodd;stroke:none"
       d="m 47.089489,28.439365 3.30238,-2.935449 5.993208,-2.813138 5.626277,-1.712345 4.525483,-0.611552 5.503966,0.489242 4.403173,0.733862 6.149441,3.234536 4.369251,4.348706 -0.856173,2.568518 1.100793,-3.791621 0,-3.791621 0.489242,-2.446208 -1.956966,-4.403173 -4.280863,-3.913931 0.122311,3.42469 0.24462,2.935448 -4.036242,-2.079276 -1.956965,-0.24462 0.12231,-4.525484 -5.993208,-1.100793 -3.42469,-0.244621 -4.525483,0.244621 0.611551,6.237828 -3.66931,0.856173 -4.158553,0.611552 -0.856172,-0.122311 -0.489242,-5.626276 -4.525483,1.345414 -4.158552,2.813138 -2.323897,2.446207 0.856172,6.115518 1.223104,0.611552 2.568517,1.345414 z"
       id="path3029" /><path
       sodipodi:nodetypes="ccccccccccc"
       id="path3031"
       d="m 65.989189,118.74595 0.778379,-9.85946 0.691891,-7.00541 1.643244,-3.545946 4.064865,-4.237837 4.41081,1.124325 c 1.949876,0.940799 3.392541,1.312992 5.275676,3.978378 l 4.064865,15.04865 -6.140541,1.64324 -6.4,1.47027 -8.389189,1.38379 z"
       style="fill:url(#linearGradient3218);fill-rule:evenodd;stroke:none" /><path
       sodipodi:nodetypes="cccccccccccccccccccc"
       id="path3220"
       d="m 62.52973,119.6973 0.259459,-8.64865 1.037838,-10.11892 1.124324,-1.72973 2.854054,-3.632432 4.92973,-4.324325 2.940541,0.864865 4.756756,2.162162 5.102703,3.45946 1.210811,4.75676 3.113514,11.15675 -2.594595,1.47027 -4.237838,-15.567564 c -1.232501,-1.676831 -2.1826,-2.82121 -5.016216,-4.151351 l -4.237838,-1.210812 c -1.509912,1.276578 -4.009513,3.079207 -4.67027,3.71892 L 67.2,102.74595 l -1.037838,12.71351 -0.172973,5.1027 -3.459459,-0.86486 z"
       style="fill:#ffffff;fill-opacity:0.12549002;fill-rule:evenodd;stroke:none" /><path
       sodipodi:nodetypes="cccscc"
       id="path3222"
       d="m 62.443243,119.43784 -2.94054,-0.25946 -4.583784,-0.95135 c 0,0 -0.0085,-3.7274 0.345946,-3.63244 1.654002,0.44316 7.437838,1.64325 7.437838,1.64325 l -0.25946,3.2 z"
       style="fill:url(#linearGradient3254);fill-rule:evenodd;stroke:none" /><path
       id="path3224"
       d="m 58.724324,115.11351 0.172973,-2.68108 3.718919,1.21081 -0.172973,2.42162 -3.718919,-0.95135 z"
       style="fill:url(#linearGradient3252);fill-rule:evenodd;stroke:none" /><path
       id="path3226"
       d="m 88.821622,110.52973 1.989189,-1.12432 2.94054,-2.24865 0.778379,2.5081 -5.016216,3.54595 -0.691892,-2.68108 z"
       style="fill:url(#linearGradient3250);fill-rule:evenodd;stroke:none" /><path
       id="path3228"
       d="m 92.021622,108.71351 -1.124325,-2.42162 -2.767567,1.64325 0.864865,2.5081 3.027027,-1.72973 z"
       style="fill:url(#linearGradient3248);fill-rule:evenodd;stroke:none" /><path
       id="path3230"
       d="m 86.918919,79.394595 -4.497297,2.508108 -2.854054,1.037838 0.951351,3.372972 1.556757,-0.259459 3.372973,-1.902703 2.94054,-1.989189 -1.47027,-2.767567 z"
       style="fill:url(#linearGradient3266);fill-rule:evenodd;stroke:none" /><path
       id="path3232"
       d="m 86.832432,79.048649 3.2,-2.421622 2.075676,-1.210811 0.864865,4.237838 -1.816216,1.902703 -2.335135,0.605405 -1.98919,-3.113513 z"
       style="fill:url(#linearGradient3264);fill-rule:evenodd;stroke:none" /><path
       id="path3234"
       d="m 88.562162,82.075676 -3.891892,2.594594 0.605406,2.854054 2.075675,-0.432432 3.718919,-1.72973 0.691892,-0.864865 -0.691892,-3.027027 -2.508108,0.605406 z"
       style="fill:url(#linearGradient3262);fill-rule:evenodd;stroke:none" /><path
       id="path3236"
       d="m 77.837838,92.8 -0.25946,-4.151351 -2.854054,0.08649 0.605406,3.286487 L 77.837838,92.8 z"
       style="fill:url(#linearGradient3260);fill-rule:evenodd;stroke:none" /><path
       id="path3238"
       d="m 71.091892,92.454054 -2.075676,-5.621622 5.102703,-1.037837 1.210811,6.4 -2.421622,-1.037838 -1.47027,1.383784 -0.778379,-0.605406"
       style="fill:url(#linearGradient3258);fill-rule:evenodd;stroke:none" /><path
       id="path3240"
       d="m 70.054054,89.945946 -2.594595,1.210811 1.98919,2.594594 1.902702,-1.297297 -1.297297,-2.508108 z"
       style="fill:url(#linearGradient3256);fill-rule:evenodd;stroke:none" /><path
       id="path3242"
       d="m 58.810811,82.767568 -5.621622,-1.556757 -2.162162,-0.778379 -0.864865,3.718919 3.286487,0.951352 c 0,0 2.335135,0.691892 2.681081,0.691892 0.345946,0 2.508108,0.259459 2.508108,0.259459 l 0.172973,-3.286486 z"
       style="fill:url(#linearGradient3272);fill-rule:evenodd;stroke:none" /><path
       id="path3244"
       d="m 51.545946,80.259459 c -0.345946,0 -3.372973,-0.778378 -3.372973,-0.778378 l -1.902703,-1.037838 -1.989189,-0.778378 -0.172973,4.151351 2.075676,1.72973 4.064865,0.778378 1.297297,-4.064865 z"
       style="fill:url(#linearGradient3270);fill-rule:evenodd;stroke:none" /><path
       id="path3246"
       d="m 47.135135,83.718919 -0.259459,2.854054 3.113513,1.297297 4.237838,0.864865 -0.08649,-3.372973 -3.113514,-1.037838 -3.891892,-0.605405 z"
       style="fill:url(#linearGradient3268);fill-rule:evenodd;stroke:none" /><path
       id="path3458"
       d="m 90.020427,76.385027 -2.079277,2.323897 -0.856172,0.12231 -1.834656,1.100794 -3.180069,1.590034 -0.978483,-8.561725 0.733862,-2.813138 2.079276,-3.791622 4.036242,0.856173 0.856173,1.100793 1.223104,8.072484 z"
       style="fill:#d59163;fill-opacity:1;fill-rule:evenodd;stroke:none" /><path
       id="path3460"
       d="m 56.629698,81.888993 -4.892415,-1.467724 -1.712345,-0.489241 -3.057759,-1.590035 0.366931,-7.950174 1.956966,-1.956965 1.100793,-0.856173 1.712345,0 2.935449,1.834656 1.345414,3.42469 0.244621,9.050966 z"
       style="fill:#d59163;fill-opacity:1;fill-rule:evenodd;stroke:none" /><path
       style="fill:#000000;fill-opacity:0.15686298;fill-rule:evenodd;stroke:none"
       d="m 56.629698,81.888993 -4.892415,-1.467724 -1.712345,-0.489241 -3.057759,-1.590035 0.366931,-7.950174 1.956966,-1.956965 1.100793,-0.856173 1.712345,0 2.935449,1.834656 1.345414,3.42469 0.244621,9.050966 z"
       id="path3462" /></g><g
     id="layer1"
     inkscape:label="outline"><path
       id="path2312"
       d="m 65.625,6.71875 c -2.498899,0.016903 -5.006444,0.147938 -7.5,0.25 L 58.5,13.8125 c -1.244741,0.743237 -2.899684,0.643257 -4.28125,1.0625 L 54.15625,13.46875 49.125,8.8125 c -3.819373,1.980204 -7.869246,2.726986 -12.84375,8.25 L 36.75,23.59375 c -2.111899,7.534109 -1.451304,15.945631 -0.96875,23.6875 1.131651,2.402174 3.241684,4.049919 5.34375,5.59375 l -3.65625,54.0625 c 6.859774,9.57478 17.656346,12.14622 28.75,13.65625 0.704254,-0.12855 0.203063,-0.69819 0.46875,-1.25 0.967047,-0.1728 1.97036,-0.37518 2.96875,-0.5625 l 0.40625,1.03125 0.375,-0.0937 0.21875,-1.125 c 1.23175,-0.23557 2.472292,-0.49158 3.71875,-0.75 l 0.46875,1.25 0.375,-0.0312 0.15625,-1.40625 c 1.054195,-0.22395 2.083528,-0.47768 3.125,-0.71875 l 0.375,1.28125 0.4375,-0.0312 0.1875,-1.46875 c 1.031943,-0.24623 2.065011,-0.48599 3.0625,-0.75 0.01589,0.12555 0.5625,1.125 0.5625,1.125 l 0.25,-0.0625 c 0,0 0.175922,-1.15798 0.15625,-1.3125 0.975509,-0.26786 1.923586,-0.55767 2.84375,-0.84375 0.01714,0.12691 0.152661,0.64214 0.3125,0.875 3.652546,-1.26293 7.337722,-4.91369 10,-7.90625 L 91.21875,52.375 c 1.789186,-1.439346 3.21992,-3.133696 4.125,-5.09375 0.189302,-8.61999 -0.270833,-15.291667 -0.40625,-22.9375 -0.06984,-2.709338 -0.987619,-5.521697 -2.625,-8 -2.090829,-2.830561 -4.008069,-3.530428 -5.9375,-5 l -5.34375,1.875 L 80.96875,16.5 C 79.468213,15.713859 78.519008,13.941318 76.125,14.71875 l -0.03125,-1.875 -3,-5.65625 C 70.614154,6.799076 68.123899,6.701847 65.625,6.71875 z m 0.78125,0.5 c 2.18503,-0.015438 4.356471,0.177961 6.4375,0.65625 l 2.25,4.375 c -3.876771,-0.761934 -8.359172,-1.890785 -13.375,-0.59375 L 59.9375,7.875 c 2.085099,-0.416539 4.28372,-0.640812 6.46875,-0.65625 z m -7.46875,0.59375 2.28125,3.78125 0.71875,4.96875 -2.71875,-2.875 -0.28125,-5.875 z m -10,1.65625 3.53125,3.90625 c -3.747864,1.040478 -6.850242,2.138906 -9.4375,5.84375 L 37.875,16.6875 c 2.709916,-3.385054 6.703391,-5.486784 11.0625,-7.21875 z m 17.03125,2.5 c 0.404235,-0.01612 0.795982,-0.0074 1.1875,0 2.8052,0.05321 5.335744,0.68795 8,1.1875 L 75.5625,17.375 c 2.300229,0.77578 4.622997,1.491452 6.4375,3.5625 l -0.46875,-6.875 c 2.117707,1.47866 3.918576,3.464593 4.78125,5.0625 0.928907,1.72059 1.118465,3.482972 0.5,5.4375 l -0.15625,3.90625 C 80.885252,21.646107 72.453921,19.495382 63.90625,20.5 c -6.216561,1.030048 -12.831643,3.006584 -17.3125,7.6875 l -2.875,-1.78125 -0.1875,-0.65625 -0.1875,-5.28125 c 2.302079,-3.78687 5.825739,-5.149711 9.875,-6.3125 l 0.59375,5.3125 C 55.692458,19.529597 57.760938,19.590104 62.71875,18 L 62.125,12.53125 c 1.352206,-0.338135 2.631046,-0.514142 3.84375,-0.5625 z m 20.25,0 c 1.944099,1.419852 4.150962,2.781501 5.59375,4.5 1.416495,1.687182 2.468691,4.400387 2.5,7.28125 l -6.46875,0.40625 c 0.432821,-1.925972 0.081,-3.599615 -0.84375,-5.3125 -0.922095,-1.707971 -2.916782,-3.712405 -4.96875,-5.1875 l 4.1875,-1.6875 z M 58.78125,14 61.4375,17.4375 c -1.926268,0.76823 -4.539948,2.033377 -6.96875,1.78125 L 54.1875,15.40625 C 55.852738,15.465486 57.362521,14.863158 58.78125,14 z m 17.90625,1.3125 c 2.126287,-0.122916 3.529274,1.455964 4.28125,2.25 l -0.03125,1.40625 c -1.343008,-0.904384 -3.13052,-1.459652 -4.75,-1.875 L 76.15625,15.375 c 0.183521,-0.03437 0.357207,-0.05244 0.53125,-0.0625 z M 37.4375,17.625 42.34375,20 42.5,25.03125 C 41.013795,24.727196 39.597682,24.598373 37.71875,23.3125 L 37.4375,17.625 z M 66.125,20.75 c 5.808562,-0.130191 17.368818,2.029057 20.5,8.875 0.04781,0.78291 -0.503986,1.057882 -0.96875,1.5625 L 83.5,26.8125 c -2.849184,1.644856 -5.880588,2.718548 -9,3.46875 -0.01282,-0.006 -1.422624,-0.636895 -2,-0.90625 L 75,27.46875 c 0.64495,0.379684 2.03125,1.1875 2.03125,1.1875 l 0.1875,-0.5625 c 0,0 -0.772763,-0.339871 -1.875,-0.875 L 76.375,26.40625 76.1875,26.0625 74.9375,27 C 74.169609,26.619882 73.305585,26.184682 72.375,25.65625 72.686158,25.477067 73.006705,25.292913 73.3125,25.125 L 73,24.8125 c -0.364482,0.182656 -0.73306,0.36798 -1.09375,0.5625 -0.908806,-0.582502 -1.757662,-1.216805 -2.625,-1.78125 l 1.40625,-0.78125 -0.90625,0.0625 -0.875,0.46875 c -0.76559,-0.464114 -1.573572,-0.849631 -2.5,-1.03125 L 66.09375,22.5 c 0.754056,0.361321 1.483258,0.757784 2.21875,1.15625 l -3.75,1.96875 c -1.186491,-0.56706 -2.186912,-1.051775 -2.625,-1.28125 l -0.09375,0.25 c 0.361152,0.189175 1.514938,0.750795 2.375,1.1875 l -4.75,2.5 C 57.755692,27.583749 56.290886,26.991895 55.8125,26.8125 l -0.1875,0.375 c 0.288315,0.108118 2.10323,0.911119 3.25,1.40625 l -3.5,1.84375 -2.1875,-1.0625 -0.25,0.28125 2.03125,1 -0.96875,0.5 0.71875,0.375 L 55.6875,31 l 4.34375,2.125 c -0.423262,0.280571 -0.863632,0.579215 -1.28125,0.84375 l -0.0625,0.375 c 0.563765,-0.328339 1.135448,-0.669297 1.71875,-1.03125 l 3.625,1.78125 -0.84375,0.625 0.46875,0.40625 0.96875,-0.75 0.96875,0.46875 L 65.8125,35.5 65.4375,39.28125 C 62.531654,39.263573 60.584812,39.477731 57.40625,38.25 l -0.625,-6.15625 c -4.030436,-0.734849 -7.746048,-2.195544 -9.6875,-3.4375 4.371642,-4.411098 10.971498,-6.705982 16.9375,-7.71875 0.553796,-0.10551 1.263955,-0.168901 2.09375,-0.1875 z m 2.625,3.125 c 0.975187,0.536547 1.940641,1.103947 2.90625,1.65625 -1.089717,0.59701 -2.162899,1.234233 -3.21875,1.90625 -1.154099,-0.543066 -2.313147,-1.071718 -3.34375,-1.5625 l 3.65625,-2 z m -31.25,0.4375 5,1.78125 0.28125,0.65625 -4.71875,1.65625 -0.8125,2.9375 C 36.98848,29.581807 36.907042,26.080545 37.5,24.3125 z M 94.4375,24.34375 94.46875,30.5 87.53125,29.4375 87.75,24.8125 94.4375,24.34375 z M 72.15625,25.8125 c 1.265656,0.728482 1.581111,0.916027 2.46875,1.4375 l -2.5625,1.90625 c -1.028442,-0.480088 -1.450775,-0.694848 -3.03125,-1.4375 1.058866,-0.676546 2.103339,-1.311807 3.125,-1.90625 z m -7.40625,0.25 c 1.294771,0.656046 1.767111,0.893859 3.28125,1.65625 C 66.743962,28.549367 65.488838,29.391685 64.25,30.25 63.775774,30.050243 63.494096,29.963494 62.9375,29.71875 61.960728,29.289248 61.075629,28.941474 60.15625,28.5625 l 4.59375,-2.5 z M 44.21875,27.28125 C 46.074563,29.53571 49.331388,31.333883 54.875,32.5 l -4.09375,2.9375 c -3.99561,-1.322561 -8.667667,-1.012934 -11.75,-6.3125 l 5.1875,-1.84375 z m 39.09375,0.25 2.15625,5.4375 c -5.749542,1.632514 -11.196125,3.934626 -17.28125,3.75 L 66.90625,32.0625 C 71.876586,31.603254 77.751734,30.456322 83.3125,27.53125 z M 68.59375,28 c 1.339007,0.673833 2.1115,1.069467 2.96875,1.5 l -2.40625,1.78125 C 68.542688,31.368147 67.929048,31.426007 67.3125,31.5 66.873232,31.337976 66.027433,30.998185 64.75,30.46875 66.026742,29.62521 67.321347,28.819255 68.59375,28 z m -9.03125,0.875 c 1.219727,0.529204 1.768412,0.764745 3.15625,1.375 0.371896,0.163529 0.645579,0.271458 0.96875,0.40625 -1.098589,0.762826 -2.187974,1.475671 -3.25,2.1875 L 56.09375,30.78125 59.5625,28.875 z M 72,29.71875 c 0.389424,0.195538 1.439627,0.719591 1.5625,0.78125 -1.116297,0.244458 -2.240546,0.447633 -3.375,0.625 L 72,29.71875 z m -33.75,0.25 c 2.795552,3.779356 7.76939,4.808764 11.96875,6.34375 L 50.375,42.625 c 3.593396,1.146603 5.582699,2.014926 17.375,2.3125 L 68.3125,37.75 c 6.456353,0.152398 12.077005,-2.377361 17.84375,-3.96875 l 0.71875,7 c 3.291294,-2.13481 6.27467,-3.982762 7.96875,-7.5625 C 95.211477,37.70073 94.739859,42.300483 94.375,46.9375 88.414578,56.578982 75.992592,58.396101 65.65625,58.53125 55.553283,58.01046 43.051844,56.099075 36.78125,47.09375 36.33354,41.476754 35.452809,35.791667 36.59375,31.65625 L 37.4375,33.6875 38.25,29.96875 z m 49.3125,0.21875 7.0625,1.125 c -0.568911,3.845868 -4.210973,6.383217 -7.15625,8.5 l -0.6875,-6.25 -0.65625,-1.46875 c 0.886895,-0.384848 1.117062,-1.078452 1.4375,-1.90625 z m -23.375,0.65625 c 0.984025,0.398887 1.604225,0.653265 2.09375,0.8125 -0.0413,0.0046 -0.08369,-0.0045 -0.125,0 l -0.1875,1.96875 -1.53125,1.15625 -3.625,-1.75 c 1.100624,-0.690635 2.236126,-1.436725 3.375,-2.1875 z m 2.4375,1.75 1.09375,4.75 -0.5,6.1875 L 66.125,39.5 l 0.5,-6.90625 z m -10.4375,0.21875 0.5,5.53125 -5.46875,3.28125 0,-5.28125 4.96875,-3.53125 z m 9.71875,1.59375 -0.09375,1 -0.75,-0.34375 0.84375,-0.65625 z m -8.75,4.5 c 3.358741,1.277355 5.501959,1.347377 8.4375,1.375 L 66.28125,44 C 61.244354,44.218592 55.849893,44.081019 51.25,42.21875 l 5.90625,-3.3125 z m 33.125,14.15625 c 2.250795,18.112092 4.275025,36.347164 5.375,54.625 -0.382857,0.4677 -0.796647,0.90173 -1.21875,1.34375 l -0.53125,-2.25 c -0.599279,0.54742 -1.21322,1.00338 -1.8125,1.4375 L 91.15625,106 l -2.75,1.53125 -2.90625,-10 c -2.45151,-2.293441 -4.996567,-3.629906 -7.625,-4.6875 L 77.8125,88.5 74.875,88.4375 l -0.5625,-3.125 -5.5625,1.375 1,3.125 -2.59375,1.28125 2.03125,2.6875 c -2.082247,1.990887 -3.832445,4.27948 -5.4375,6.71875 -0.77121,4.18015 -1.109628,8.41076 -1.34375,12.65625 L 58.75,112.25 l -0.21875,3 c -1.135398,-0.24862 -2.286497,-0.564 -3.4375,-0.90625 l -0.40625,3.5 c -7.359646,-2.351 -13.770306,-6.85675 -16.21875,-11.03125 0.752693,-18.08501 1.873901,-35.924344 3.625,-53.34375 7.102223,4.091614 15.415752,5.137224 23.46875,5.5 8.551976,0.05263 17.460009,-1.09477 24.71875,-5.90625 z m -6.625,13 c -1.729074,1.7211 -2.444669,4.373384 -2.8125,6.8125 l 0.96875,8.90625 -2.25,1.0625 0.78125,3.71875 c 1.551838,-0.144909 2.913591,-0.741486 4.1875,-1.5 l 0.78125,2.5625 c -0.05057,0.563812 4.703202,-1.014034 6.875,-3.1875 l -0.84375,-2.96875 1.78125,-1.625 -1.0625,-4.59375 -2,1.25 -1.125,-9.15625 C 87.31596,66.289798 85.546848,66.060954 83.65625,66.0625 z m -31.5625,0.84375 c -1.727635,1.033345 -2.621521,-0.573518 -5.25,3.3125 L 46.5,78.40625 c -0.734956,-0.309732 -1.474331,-0.637921 -2.1875,-1 L 43.875,81.9375 c 0.920062,0.720995 0.718991,1.166438 3,1.90625 l -0.25,2.875 c 2.206967,1.063866 4.730943,1.810723 7.6875,2.125 L 54.25,85.75 c 1.468071,0.329022 2.957855,0.56681 4.5,0.5625 l 0.40625,-3.875 c -0.792857,-0.09889 -1.577537,-0.229529 -2.34375,-0.375 l -0.125,-9.96875 c -0.74915,-2.401732 -2.531206,-3.898435 -4.59375,-5.1875 z m 33.5625,0.125 c 1.184585,0.01398 1.3012,0.449774 2.375,1 l 1.4375,8.625 c -0.800795,0.81769 -1.61606,1.616086 -2.90625,1.78125 L 85.65625,67.03125 z m -34.875,0.90625 c 0.629955,3.885417 0.323951,7.770833 0.15625,11.65625 -1.373445,0.152363 -2.384892,-0.600271 -3.4375,-1.25 l 0.34375,-7.875 c 0.884092,-1.0339 1.588677,-2.426813 2.9375,-2.53125 z M 82.9375,68.34375 85.65625,79 c -0.950177,1.342863 -2.151013,1.432433 -3.25,2.03125 l -0.5625,-8.15625 0,-0.03125 c -0.01126,-1.921731 0.120572,-2.883801 1.09375,-4.5 z M 52.96875,68.5 c 1.452869,0.878361 2.012448,1.947789 2.71875,3.71875 l 0.125,9.15625 C 54.27933,81.35801 53.120325,80.592683 51.90625,79.9375 52.067741,76.04793 52.019356,72.074409 52.96875,68.5 z M 91.875,75.71875 92.5625,79.625 c -0.503136,0.739296 -1.000162,1.434778 -1.78125,1.65625 -0.730583,0.207152 -1.546706,0.35131 -2.375,0.625 l -1,-2.5625 c 0.998302,-0.658911 1.894018,-1.434893 2.625,-2.4375 L 91.875,75.71875 z M 44.78125,78 c 1.547425,0.749101 3.743541,2.246641 5.53125,2.5 0.09539,0.0362 0.185441,0.09005 0.28125,0.125 L 50.125,83.96875 c -1.757609,-0.55858 -4.145982,-0.823259 -5.78125,-2 L 44.78125,78 z m 42.15625,1.65625 0.875,2.375 c -2.124081,1.411194 -4.625736,3.664465 -7.15625,4.125 l -0.75,-3.03125 c 2.127977,-1.138039 4.356626,-1.585362 6.5,-3.15625 0.182958,-0.101116 0.353243,-0.205019 0.53125,-0.3125 z m -35.78125,1.1875 c 0.450706,0.151848 0.915863,0.279697 1.375,0.40625 1.940975,0.879171 4.212401,1.30816 6.0625,1.59375 L 58.25,85.625 c -2.300227,-0.100337 -5.356444,-0.899328 -7.65625,-1.53125 l 0.5625,-3.25 z m 39.75,1.03125 0.34375,2 c -0.641011,1.434853 -3.029623,3.05556 -5.65625,3.375 l -0.6875,-2.4375 c 1.130881,-0.711371 2.209575,-1.515479 3.3125,-2.28125 l 0.0625,-0.03125 0,0.03125 c 0.767335,-0.290815 1.683118,-0.389186 2.625,-0.65625 z M 47.3125,83.96875 c 0.753085,0.227073 1.692149,0.484259 3,0.78125 1.157255,0.294293 2.307228,0.599905 3.46875,0.875 l 0.15625,2.75 c -1.991093,-0.313436 -5.007665,-1.059077 -6.875,-1.90625 l 0.25,-2.5 z m 26.53125,1.96875 0.65625,2.75 0,0.1875 0.0625,0 0.71875,3 c -0.856209,-0.300736 -1.721939,-0.598164 -2.59375,-0.90625 -0.450802,0.291545 -0.889645,0.61916 -1.3125,0.9375 L 69.5,87.09375 73.84375,85.9375 z m 1.125,2.96875 2.3125,0.0625 0.125,3.6875 c -0.619909,-0.24103 -1.246232,-0.465078 -1.875,-0.6875 l -0.5625,-3.0625 z M 69.9375,90.3125 70.625,92.46875 C 70.223583,92.796983 69.846737,93.149395 69.46875,93.5 L 67.75,91.25 69.9375,90.3125 z m 2.96875,1.25 c 0.03157,-0.0058 0.06234,0.0045 0.09375,0 6.288371,1.531756 8.5643,4.153524 12.1875,6.40625 1.537004,4.9818 3.139284,10.14276 3.875,15.4375 -0.543803,0.34596 -1.086014,0.68084 -1.65625,1 l -3.96875,-15.25 C 80.911078,96.05635 77.307741,94.7443 73.65625,93.46875 70.285475,95.368896 68.297928,97.93739 66.9375,101.5 L 65.5,119.46875 c -0.801026,0.0272 -1.597744,0.0132 -2.40625,-0.0312 -0.197345,-6.29264 -0.05977,-12.45786 1.03125,-18.6875 2.259004,-3.73159 5.544725,-6.963168 8.71875,-9.15625 0.02235,-0.0048 0.0402,-0.02714 0.0625,-0.03125 z m 0.875,3.03125 c 0.888907,0.370461 1.785587,0.591632 2.65625,0.8125 l 0.25,2.65625 c -0.908707,0.08241 -1.813571,0.19843 -2.71875,0.3125 l -0.28125,-3.65625 -0.09375,0 c 0.06256,-0.04325 0.124778,-0.08131 0.1875,-0.125 z m -1.0625,0.75 0.25,3.125 c -1.240592,0.1482 -2.544906,0.3187 -3.0625,0.375 L 69.875,97.8125 c 0.838731,-1.01829 1.816547,-1.75278 2.84375,-2.46875 z m 4.75,0.34375 c 0.308881,0.08679 0.608626,0.174833 0.90625,0.28125 0.871788,0.31171 1.696467,0.73774 2.46875,1.4375 -1.031428,0.23611 -2.031998,0.45975 -3.15625,0.53125 l -0.21875,-2.25 z M 81.40625,98 c 0.375573,0.42798 0.742513,0.91556 1.09375,1.53125 l 0.53125,2 -1.21875,0.125 C 81.790269,101.46057 81.771061,101.18631 81.75,101 81.642422,100.04835 81.531194,99.22299 81.46875,98.59375 81.437464,98.27848 81.421882,98.20474 81.40625,98 z m -0.9375,0.59375 c 0.0043,0.04389 -0.0046,0.04737 0,0.09375 0.06323,0.6372 0.173381,1.48328 0.28125,2.4375 0.02121,0.18767 0.04013,0.45987 0.0625,0.65625 l -2.71875,0.3125 -0.3125,-3.15625 c 1.138758,-0.1396 2.358912,-0.30271 2.6875,-0.34375 z m -3.6875,0.4375 0.3125,3.1875 L 74.25,102.5625 74.03125,99.375 c 0.917921,-0.1049 1.834074,-0.22323 2.75,-0.34375 z m -7.84375,0.1875 0.125,3.9375 -1.3125,0.15625 0.15625,-1.5625 c 0.273547,-0.99818 0.63589,-1.81587 1.03125,-2.53125 z m 4.09375,0.28125 0.21875,3.15625 -3.1875,0.375 -0.125,-3.1875 C 70.482533,99.78629 71.802673,99.64573 73.03125,99.5 z m 10.25,3 0.875,3.40625 -1.78125,0.375 c -0.152523,-1.28102 -0.305545,-2.47304 -0.4375,-3.625 L 83.28125,102.5 z m -2.34375,0.28125 c 0.134914,1.17126 0.281442,2.38381 0.4375,3.6875 l -2.8125,0.5625 -0.375,-3.9375 2.75,-0.3125 z m -3.75,0.4375 0.375,4 -2.90625,0.5625 -0.3125,-4.21875 2.84375,-0.34375 z m -3.84375,0.46875 0.3125,4.28125 -3.375,0.65625 -0.15625,-4.5625 3.21875,-0.375 z m -4.21875,0.5 0.15625,4.65625 -2.0625,0.40625 0.46875,-4.90625 1.4375,-0.15625 z m 21.375,2.625 0.75,2 c -0.697529,0.46853 -1.396221,0.89587 -2.09375,1.34375 L 88.5,107.84375 88.53125,107.875 90.5,106.8125 z M 84.40625,106.9062 85.5,111 83,111.5 c -0.173165,-1.4067 -0.347297,-2.81375 -0.53125,-4.21875 l 1.9375,-0.375 z m 9.1875,0.5 0.53125,1.96875 c -1.249623,1.26086 -2.659633,2.42727 -4.1875,3.46875 l -0.65625,-2.3125 c 1.474234,-0.86725 2.948829,-1.70493 4.3125,-3.125 z M 81.5,107.46875 c 0.155107,1.40869 0.350019,2.81315 0.53125,4.21875 l -2.96875,0.59375 -0.40625,-4.25 2.84375,-0.5625 z m -3.84375,0.75 0.40625,4.25 -3.03125,0.59375 -0.3125,-4.28125 2.9375,-0.5625 z m -3.9375,0.75 0.3125,4.3125 -3.5625,0.71875 -0.15625,-4.375 3.40625,-0.65625 z m -4.40625,0.875 0.1875,4.34375 -2.8125,0.5625 0.5625,-4.34375 2.0625,-0.5625 z m 16.4375,2.125 0.5,1.875 c -0.915939,0.28718 -1.866805,0.5735 -2.84375,0.84375 C 83.3472,114.22208 83.224922,113.2947 83.125,112.5 l 2.625,-0.53125 z m -3.59375,0.71875 c 0.102499,0.8187 0.223786,1.8259 0.28125,2.28125 -0.982492,0.26188 -2.01155,0.50458 -3.03125,0.75 l -0.25,-2.4375 3,-0.59375 z m -22.96875,0.1875 3.1875,0.78125 c -0.03776,0.70903 -0.09104,1.41599 -0.125,2.125 -1.070721,-0.0558 -2.151389,-0.21438 -3.25,-0.4375 l 0.1875,-2.46875 z m 18.96875,0.625 0.25,2.4375 c -1.028054,0.24007 -2.050777,0.46378 -3.09375,0.6875 L 75.125,114.09375 78.15625,113.5 z m -4.03125,0.8125 0.1875,2.53125 c -1.238307,0.25911 -2.461652,0.51372 -3.6875,0.75 l -0.09375,-2.5625 3.59375,-0.71875 z m -18.65625,0.5625 c 2.25752,0.76302 4.523729,1.18091 6.78125,1.5 -0.04656,0.98719 -0.108496,1.983 -0.15625,2.96875 C 59.792003,119.13855 57.477236,118.67385 55.25,118 l 0.21875,-3.125 z m 14.0625,0.34375 0.09375,2.5625 c -1.07246,0.2026 -2.1512,0.40874 -3.1875,0.59375 -0.03376,0.006 -0.06236,0.0209 -0.09375,0.0312 L 66.5,115.875 l 3.03125,-0.65625 z"
       style="fill:#000000;fill-opacity:1;fill-rule:evenodd;stroke:none" /></g></g></g>
</svg>